# xmcd
#
# Track frame offsets: 
#        150
#        2905
#        14862
#        31142
#        47902
#        67667
#        91317
#        108530
#        125887
#        151947
#        165125
#
# Disc length: 2462 seconds
#
# Revision: 1
# Processed by: cddbd v1.5.2PL0 Copyright (c) Steve Scherf et al.
# Submitted via: ExactAudioCopyFreeDBPlugin 1.0
#
DISCID=84099c0b
DTITLE=Bobby Womack - Bobby Womack:  The Collection [BCM Records] [box
DTITLE=set]
DYEAR=1990
DGENRE=Soul
TTITLE0=Medley #3:  Interlude #1
TTITLE1=Medley #3 (continued):  I Don't Know
TTITLE2=Superstar
TTITLE3=(If You Want My Love) Put Something Down on It
TTITLE4=Git It
TTITLE5=What's Your World
TTITLE6=Check it Out
TTITLE7=Interlude #2
TTITLE8=Jealous Love
TTITLE9=It's All Over Now
TTITLE10=Yes, Jesus Loves Me
EXTD=YEAR: 1975 ID3G: 42
EXTT0=
EXTT1=
EXTT2=
EXTT3=
EXTT4=
EXTT5=
EXTT6=
EXTT7=
EXTT8=
EXTT9=
EXTT10=
PLAYORDER=
